<svg width="130" height="17" viewBox="0 0 130 17" version="1.1" xmlns="http://www.w3.org/2000/svg" xmlns:xlink="http://www.w3.org/1999/xlink">
<g id="Canvas" fill="none">
<g id="pressapps-logo">
<g id="logo-pressapps-dark" transform="translate(-1 0)">
<path d="M 1.957 15L 2.375 15L 2.375 9.775L 6.555 9.775C 9.766 9.775 11.742 8.312 11.742 5.728L 11.742 5.69C 11.742 3.201 9.88 1.7 6.631 1.7L 1.957 1.7L 1.957 15ZM 2.375 9.395L 2.375 2.08L 6.593 2.08C 9.576 2.08 11.324 3.448 11.324 5.709L 11.324 5.747C 11.324 8.103 9.5 9.395 6.555 9.395L 2.375 9.395ZM 16.6674 15L 17.0854 15L 17.0854 9.205L 22.0254 9.205L 26.4334 15L 26.9464 15L 22.5194 9.186C 25.0844 9.034 26.8704 7.704 26.8704 5.462L 26.8704 5.424C 26.8704 4.398 26.5284 3.562 25.9204 2.954C 25.1034 2.137 23.8304 1.7 22.1014 1.7L 16.6674 1.7L 16.6674 15ZM 17.0854 8.825L 17.0854 2.08L 22.0634 2.08C 24.8184 2.08 26.4524 3.334 26.4524 5.443L 26.4524 5.481C 26.4524 7.362 24.9704 8.825 21.8924 8.825L 17.0854 8.825ZM 32.4164 15L 41.8024 15L 41.8024 14.62L 32.8344 14.62L 32.8344 8.502L 40.8904 8.502L 40.8904 8.122L 32.8344 8.122L 32.8344 2.08L 41.7074 2.08L 41.7074 1.7L 32.4164 1.7L 32.4164 15ZM 51.2932 15.19C 54.1052 15.19 55.8342 13.632 55.8342 11.656L 55.8342 11.618C 55.8342 9.813 54.6942 8.768 51.2362 8.065C 47.9682 7.4 46.9422 6.545 46.9422 4.93L 46.9422 4.892C 46.9422 3.334 48.4812 1.89 50.8182 1.89C 52.4522 1.89 53.9342 2.479 55.1122 3.372L 55.3782 3.03C 54.1622 2.099 52.6042 1.51 50.8562 1.51C 48.3482 1.51 46.5242 3.049 46.5242 4.911L 46.5242 4.949C 46.5242 6.811 47.7782 7.78 51.0652 8.445C 54.4282 9.129 55.4162 10.003 55.4162 11.637L 55.4162 11.675C 55.4162 13.461 53.8202 14.81 51.3312 14.81C 49.3932 14.81 47.6832 14.069 46.3342 12.758L 46.0302 13.062C 47.4552 14.411 49.2602 15.19 51.2932 15.19ZM 65.2981 15.19C 68.1101 15.19 69.8391 13.632 69.8391 11.656L 69.8391 11.618C 69.8391 9.813 68.6991 8.768 65.2411 8.065C 61.9731 7.4 60.9471 6.545 60.9471 4.93L 60.9471 4.892C 60.9471 3.334 62.4861 1.89 64.8231 1.89C 66.4571 1.89 67.9391 2.479 69.1171 3.372L 69.3831 3.03C 68.1671 2.099 66.6091 1.51 64.8611 1.51C 62.3531 1.51 60.5291 3.049 60.5291 4.911L 60.5291 4.949C 60.5291 6.811 61.7831 7.78 65.0701 8.445C 68.4331 9.129 69.4211 10.003 69.4211 11.637L 69.4211 11.675C 69.4211 13.461 67.8251 14.81 65.3361 14.81C 63.3981 14.81 61.6881 14.069 60.3391 12.758L 60.0351 13.062C 61.4601 14.411 63.2651 15.19 65.2981 15.19ZM 73.6219 15L 74.0589 15L 75.9589 11.01L 84.4329 11.01L 86.3329 15L 86.7889 15L 80.3859 1.605L 80.0249 1.605L 73.6219 15ZM 76.1489 10.63L 80.1959 2.156L 84.2429 10.63L 76.1489 10.63ZM 91.4414 15L 91.8594 15L 91.8594 9.775L 96.0394 9.775C 99.2504 9.775 101.226 8.312 101.226 5.728L 101.226 5.69C 101.226 3.201 99.3644 1.7 96.1154 1.7L 91.4414 1.7L 91.4414 15ZM 91.8594 9.395L 91.8594 2.08L 96.0774 2.08C 99.0604 2.08 100.808 3.448 100.808 5.709L 100.808 5.747C 100.808 8.103 98.9844 9.395 96.0394 9.395L 91.8594 9.395ZM 106.133 15L 106.551 15L 106.551 9.775L 110.731 9.775C 113.942 9.775 115.918 8.312 115.918 5.728L 115.918 5.69C 115.918 3.201 114.056 1.7 110.807 1.7L 106.133 1.7L 106.133 15ZM 106.551 9.395L 106.551 2.08L 110.769 2.08C 113.752 2.08 115.5 3.448 115.5 5.709L 115.5 5.747C 115.5 8.103 113.676 9.395 110.731 9.395L 106.551 9.395ZM 125.251 15.19C 128.063 15.19 129.792 13.632 129.792 11.656L 129.792 11.618C 129.792 9.813 128.652 8.768 125.194 8.065C 121.926 7.4 120.9 6.545 120.9 4.93L 120.9 4.892C 120.9 3.334 122.439 1.89 124.776 1.89C 126.41 1.89 127.892 2.479 129.07 3.372L 129.336 3.03C 128.12 2.099 126.562 1.51 124.814 1.51C 122.306 1.51 120.482 3.049 120.482 4.911L 120.482 4.949C 120.482 6.811 121.736 7.78 125.023 8.445C 128.386 9.129 129.374 10.003 129.374 11.637L 129.374 11.675C 129.374 13.461 127.778 14.81 125.289 14.81C 123.351 14.81 121.641 14.069 120.292 12.758L 119.988 13.062C 121.413 14.411 123.218 15.19 125.251 15.19Z" fill="black"/>
<path d="M 1.957 15L 1.087 15C 1.087 15.4805 1.47651 15.87 1.957 15.87L 1.957 15ZM 2.375 15L 2.375 15.87C 2.85549 15.87 3.245 15.4805 3.245 15L 2.375 15ZM 2.375 9.775L 2.375 8.905C 1.89451 8.905 1.505 9.29451 1.505 9.775L 2.375 9.775ZM 1.957 1.7L 1.957 0.83C 1.47651 0.83 1.087 1.21951 1.087 1.7L 1.957 1.7ZM 2.375 9.395L 1.505 9.395C 1.505 9.87549 1.89451 10.265 2.375 10.265L 2.375 9.395ZM 2.375 2.08L 2.375 1.21C 1.89451 1.21 1.505 1.59951 1.505 2.08L 2.375 2.08ZM 1.957 15.87L 2.375 15.87L 2.375 14.13L 1.957 14.13L 1.957 15.87ZM 3.245 15L 3.245 9.775L 1.505 9.775L 1.505 15L 3.245 15ZM 2.375 10.645L 6.555 10.645L 6.555 8.905L 2.375 8.905L 2.375 10.645ZM 6.555 10.645C 8.2782 10.645 9.78576 10.2542 10.8831 9.41008C 12.0106 8.54278 12.612 7.26653 12.612 5.728L 10.872 5.728C 10.872 6.77347 10.4854 7.52072 9.82218 8.03092C 9.12874 8.56433 8.0428 8.905 6.555 8.905L 6.555 10.645ZM 12.612 5.728L 12.612 5.69L 10.872 5.69L 10.872 5.728L 12.612 5.728ZM 12.612 5.69C 12.612 4.20709 12.0455 2.94616 10.9431 2.07811C 9.86814 1.2316 8.37591 0.83 6.631 0.83L 6.631 2.57C 8.13509 2.57 9.19836 2.9189 9.86663 3.44514C 10.5075 3.94984 10.872 4.68391 10.872 5.69L 12.612 5.69ZM 6.631 0.83L 1.957 0.83L 1.957 2.57L 6.631 2.57L 6.631 0.83ZM 1.087 1.7L 1.087 15L 2.827 15L 2.827 1.7L 1.087 1.7ZM 3.245 9.395L 3.245 2.08L 1.505 2.08L 1.505 9.395L 3.245 9.395ZM 2.375 2.95L 6.593 2.95L 6.593 1.21L 2.375 1.21L 2.375 2.95ZM 6.593 2.95C 7.96519 2.95 8.93728 3.2662 9.5458 3.73553C 10.1258 4.1829 10.454 4.82701 10.454 5.709L 12.194 5.709C 12.194 4.32999 11.6482 3.1596 10.6085 2.35772C 9.59722 1.5778 8.20381 1.21 6.593 1.21L 6.593 2.95ZM 10.454 5.709L 10.454 5.747L 12.194 5.747L 12.194 5.709L 10.454 5.709ZM 10.454 5.747C 10.454 6.67296 10.1101 7.31777 9.5222 7.75826C 8.9003 8.22424 7.91628 8.525 6.555 8.525L 6.555 10.265C 8.13872 10.265 9.5392 9.91976 10.5656 9.15074C 11.6259 8.35623 12.194 7.17704 12.194 5.747L 10.454 5.747ZM 6.555 8.525L 2.375 8.525L 2.375 10.265L 6.555 10.265L 6.555 8.525ZM 16.6674 15L 15.7974 15C 15.7974 15.4805 16.1869 15.87 16.6674 15.87L 16.6674 15ZM 17.0854 15L 17.0854 15.87C 17.5659 15.87 17.9554 15.4805 17.9554 15L 17.0854 15ZM 17.0854 9.205L 17.0854 8.335C 16.6049 8.335 16.2154 8.72451 16.2154 9.205L 17.0854 9.205ZM 22.0254 9.205L 22.7178 8.67829C 22.5533 8.46199 22.2972 8.335 22.0254 8.335L 22.0254 9.205ZM 26.4334 15L 25.741 15.5267C 25.9055 15.743 26.1616 15.87 26.4334 15.87L 26.4334 15ZM 26.9464 15L 26.9464 15.87C 27.2771 15.87 27.5792 15.6825 27.726 15.3862C 27.8728 15.0899 27.8389 14.736 27.6386 14.4729L 26.9464 15ZM 22.5194 9.186L 22.4679 8.31752C 22.1471 8.33654 21.8629 8.5309 21.7288 8.823C 21.5946 9.11509 21.6325 9.45733 21.8272 9.71305L 22.5194 9.186ZM 25.9204 2.954L 26.5356 2.33882L 26.5356 2.33882L 25.9204 2.954ZM 16.6674 1.7L 16.6674 0.83C 16.1869 0.83 15.7974 1.21951 15.7974 1.7L 16.6674 1.7ZM 17.0854 8.825L 16.2154 8.825C 16.2154 9.30549 16.6049 9.695 17.0854 9.695L 17.0854 8.825ZM 17.0854 2.08L 17.0854 1.21C 16.6049 1.21 16.2154 1.59951 16.2154 2.08L 17.0854 2.08ZM 16.6674 15.87L 17.0854 15.87L 17.0854 14.13L 16.6674 14.13L 16.6674 15.87ZM 17.9554 15L 17.9554 9.205L 16.2154 9.205L 16.2154 15L 17.9554 15ZM 17.0854 10.075L 22.0254 10.075L 22.0254 8.335L 17.0854 8.335L 17.0854 10.075ZM 21.333 9.73171L 25.741 15.5267L 27.1258 14.4733L 22.7178 8.67829L 21.333 9.73171ZM 26.4334 15.87L 26.9464 15.87L 26.9464 14.13L 26.4334 14.13L 26.4334 15.87ZM 27.6386 14.4729L 23.2116 8.65895L 21.8272 9.71305L 26.2542 15.5271L 27.6386 14.4729ZM 22.5709 10.0545C 23.9804 9.97095 25.2622 9.55977 26.2098 8.77933C 27.1799 7.98045 27.7404 6.84002 27.7404 5.462L 26.0004 5.462C 26.0004 6.32598 25.6679 6.97155 25.1037 7.43617C 24.5171 7.91923 23.6234 8.24905 22.4679 8.31752L 22.5709 10.0545ZM 27.7404 5.462L 27.7404 5.424L 26.0004 5.424L 26.0004 5.462L 27.7404 5.462ZM 27.7404 5.424C 27.7404 4.19317 27.3242 3.12742 26.5356 2.33882L 25.3052 3.56918C 25.7326 3.99658 26.0004 4.60283 26.0004 5.424L 27.7404 5.424ZM 26.5356 2.33882C 25.4971 1.3003 23.9629 0.83 22.1014 0.83L 22.1014 2.57C 23.6979 2.57 24.7097 2.9737 25.3052 3.56918L 26.5356 2.33882ZM 22.1014 0.83L 16.6674 0.83L 16.6674 2.57L 22.1014 2.57L 22.1014 0.83ZM 15.7974 1.7L 15.7974 15L 17.5374 15L 17.5374 1.7L 15.7974 1.7ZM 17.9554 8.825L 17.9554 2.08L 16.2154 2.08L 16.2154 8.825L 17.9554 8.825ZM 17.0854 2.95L 22.0634 2.95L 22.0634 1.21L 17.0854 1.21L 17.0854 2.95ZM 22.0634 2.95C 23.323 2.95 24.2102 3.23833 24.7617 3.6611C 25.2838 4.06128 25.5824 4.63823 25.5824 5.443L 27.3224 5.443C 27.3224 4.13877 26.804 3.03422 25.8203 2.28015C 24.8661 1.54867 23.5588 1.21 22.0634 1.21L 22.0634 2.95ZM 25.5824 5.443L 25.5824 5.481L 27.3224 5.481L 27.3224 5.443L 25.5824 5.443ZM 25.5824 5.481C 25.5824 6.17414 25.3193 6.75249 24.785 7.17756C 24.2305 7.61876 23.3041 7.955 21.8924 7.955L 21.8924 9.695C 23.5587 9.695 24.9124 9.29974 25.8683 8.53919C 26.8445 7.76251 27.3224 6.66886 27.3224 5.481L 25.5824 5.481ZM 21.8924 7.955L 17.0854 7.955L 17.0854 9.695L 21.8924 9.695L 21.8924 7.955ZM 32.4164 15L 31.5464 15C 31.5464 15.4805 31.9359 15.87 32.4164 15.87L 32.4164 15ZM 41.8024 15L 41.8024 15.87C 42.2829 15.87 42.6724 15.4805 42.6724 15L 41.8024 15ZM 41.8024 14.62L 42.6724 14.62C 42.6724 14.1395 42.2829 13.75 41.8024 13.75L 41.8024 14.62ZM 32.8344 14.62L 31.9644 14.62C 31.9644 15.1005 32.3539 15.49 32.8344 15.49L 32.8344 14.62ZM 32.8344 8.502L 32.8344 7.632C 32.3539 7.632 31.9644 8.02151 31.9644 8.502L 32.8344 8.502ZM 40.8904 8.502L 40.8904 9.372C 41.3709 9.372 41.7604 8.98249 41.7604 8.502L 40.8904 8.502ZM 40.8904 8.122L 41.7604 8.122C 41.7604 7.64151 41.3709 7.252 40.8904 7.252L 40.8904 8.122ZM 32.8344 8.122L 31.9644 8.122C 31.9644 8.60249 32.3539 8.992 32.8344 8.992L 32.8344 8.122ZM 32.8344 2.08L 32.8344 1.21C 32.3539 1.21 31.9644 1.59951 31.9644 2.08L 32.8344 2.08ZM 41.7074 2.08L 41.7074 2.95C 42.1879 2.95 42.5774 2.56049 42.5774 2.08L 41.7074 2.08ZM 41.7074 1.7L 42.5774 1.7C 42.5774 1.21951 42.1879 0.83 41.7074 0.83L 41.7074 1.7ZM 32.4164 1.7L 32.4164 0.83C 31.9359 0.83 31.5464 1.21951 31.5464 1.7L 32.4164 1.7ZM 32.4164 15.87L 41.8024 15.87L 41.8024 14.13L 32.4164 14.13L 32.4164 15.87ZM 42.6724 15L 42.6724 14.62L 40.9324 14.62L 40.9324 15L 42.6724 15ZM 41.8024 13.75L 32.8344 13.75L 32.8344 15.49L 41.8024 15.49L 41.8024 13.75ZM 33.7044 14.62L 33.7044 8.502L 31.9644 8.502L 31.9644 14.62L 33.7044 14.62ZM 32.8344 9.372L 40.8904 9.372L 40.8904 7.632L 32.8344 7.632L 32.8344 9.372ZM 41.7604 8.502L 41.7604 8.122L 40.0204 8.122L 40.0204 8.502L 41.7604 8.502ZM 40.8904 7.252L 32.8344 7.252L 32.8344 8.992L 40.8904 8.992L 40.8904 7.252ZM 33.7044 8.122L 33.7044 2.08L 31.9644 2.08L 31.9644 8.122L 33.7044 8.122ZM 32.8344 2.95L 41.7074 2.95L 41.7074 1.21L 32.8344 1.21L 32.8344 2.95ZM 42.5774 2.08L 42.5774 1.7L 40.8374 1.7L 40.8374 2.08L 42.5774 2.08ZM 41.7074 0.83L 32.4164 0.83L 32.4164 2.57L 41.7074 2.57L 41.7074 0.83ZM 31.5464 1.7L 31.5464 15L 33.2864 15L 33.2864 1.7L 31.5464 1.7ZM 51.2362 8.065L 51.0627 8.91753L 51.0629 8.91756L 51.2362 8.065ZM 55.1122 3.372L 54.5866 4.06531C 54.9662 4.35303 55.5065 4.28208 55.7989 3.90613L 55.1122 3.372ZM 55.3782 3.03L 56.0649 3.56413C 56.2073 3.38109 56.2707 3.14879 56.241 2.9188C 56.2114 2.68882 56.0912 2.48018 55.9071 2.33922L 55.3782 3.03ZM 51.0652 8.445L 51.2386 7.59245L 51.2377 7.59228L 51.0652 8.445ZM 46.3342 12.758L 46.9405 12.1341C 46.5994 11.8026 46.0553 11.8065 45.719 12.1428L 46.3342 12.758ZM 46.0302 13.062L 45.415 12.4468C 45.2489 12.6129 45.157 12.8391 45.1603 13.0739C 45.1635 13.3088 45.2615 13.5323 45.4321 13.6938L 46.0302 13.062ZM 51.2932 16.06C 54.4077 16.06 56.7042 14.2729 56.7042 11.656L 54.9642 11.656C 54.9642 12.9911 53.8026 14.32 51.2932 14.32L 51.2932 16.06ZM 56.7042 11.656L 56.7042 11.618L 54.9642 11.618L 54.9642 11.656L 56.7042 11.656ZM 56.7042 11.618C 56.7042 10.4915 56.3286 9.5127 55.376 8.74933C 54.4915 8.04055 53.1722 7.57079 51.4095 7.21244L 51.0629 8.91756C 52.7581 9.26221 53.7379 9.66645 54.2879 10.1072C 54.7698 10.4933 54.9642 10.9395 54.9642 11.618L 56.7042 11.618ZM 51.4097 7.21247C 49.7948 6.88387 48.886 6.533 48.3857 6.15775C 48.1528 5.98312 48.0221 5.81262 47.9429 5.64177C 47.8615 5.46628 47.8122 5.24169 47.8122 4.93L 46.0722 4.93C 46.0722 5.42581 46.1511 5.91372 46.3642 6.37355C 46.5795 6.838 46.9095 7.22563 47.3417 7.54975C 48.1714 8.172 49.4096 8.58113 51.0627 8.91753L 51.4097 7.21247ZM 47.8122 4.93L 47.8122 4.892L 46.0722 4.892L 46.0722 4.93L 47.8122 4.93ZM 47.8122 4.892C 47.8122 3.96706 48.7934 2.76 50.8182 2.76L 50.8182 1.02C 48.169 1.02 46.0722 2.70094 46.0722 4.892L 47.8122 4.892ZM 50.8182 2.76C 52.2387 2.76 53.5398 3.27176 54.5866 4.06531L 55.6378 2.67869C 54.3286 1.68624 52.6656 1.02 50.8182 1.02L 50.8182 2.76ZM 55.7989 3.90613L 56.0649 3.56413L 54.6914 2.49587L 54.4254 2.83787L 55.7989 3.90613ZM 55.9071 2.33922C 54.5463 1.29738 52.8041 0.64 50.8562 0.64L 50.8562 2.38C 52.4043 2.38 53.7781 2.90062 54.8493 3.72078L 55.9071 2.33922ZM 50.8562 0.64C 48.0562 0.64 45.6542 2.39957 45.6542 4.911L 47.3942 4.911C 47.3942 3.69843 48.6402 2.38 50.8562 2.38L 50.8562 0.64ZM 45.6542 4.911L 45.6542 4.949L 47.3942 4.949L 47.3942 4.911L 45.6542 4.911ZM 45.6542 4.949C 45.6542 6.12121 46.0712 7.09547 47.0311 7.83504C 47.9203 8.5202 49.2208 8.95948 50.8927 9.29772L 51.2377 7.59228C 49.6226 7.26552 48.6525 6.8878 48.093 6.45671C 47.6042 6.08003 47.3942 5.63879 47.3942 4.949L 45.6542 4.949ZM 50.8918 9.29754C 52.5544 9.63571 53.4741 9.99568 53.9747 10.3769C 54.207 10.5538 54.337 10.727 54.416 10.9023C 54.4975 11.0834 54.5462 11.3153 54.5462 11.637L 56.2862 11.637C 56.2862 11.1417 56.2113 10.6516 56.0025 10.1879C 55.7911 9.71839 55.4639 9.32392 55.0289 8.99261C 54.1947 8.35732 52.9389 7.93829 51.2386 7.59246L 50.8918 9.29754ZM 54.5462 11.637L 54.5462 11.675L 56.2862 11.675L 56.2862 11.637L 54.5462 11.637ZM 54.5462 11.675C 54.5462 12.2868 54.2811 12.8244 53.768 13.2293C 53.243 13.6438 52.4244 13.94 51.3312 13.94L 51.3312 15.68C 52.7269 15.68 53.9509 15.3017 54.8461 14.5952C 55.7532 13.8791 56.2862 12.8492 56.2862 11.675L 54.5462 11.675ZM 51.3312 13.94C 49.6308 13.94 48.1353 13.2953 46.9405 12.1341L 45.7278 13.3819C 47.231 14.8427 49.1556 15.68 51.3312 15.68L 51.3312 13.94ZM 45.719 12.1428L 45.415 12.4468L 46.6454 13.6772L 46.9494 13.3732L 45.719 12.1428ZM 45.4321 13.6938C 47.0084 15.186 49.0239 16.06 51.2932 16.06L 51.2932 14.32C 49.4965 14.32 47.902 13.636 46.6283 12.4302L 45.4321 13.6938ZM 65.2411 8.065L 65.0676 8.91753L 65.0677 8.91756L 65.2411 8.065ZM 69.1171 3.372L 68.5915 4.06531C 68.971 4.35303 69.5114 4.28208 69.8038 3.90613L 69.1171 3.372ZM 69.3831 3.03L 70.0698 3.56413C 70.2122 3.38109 70.2756 3.14879 70.2459 2.9188C 70.2163 2.68882 70.0961 2.48018 69.9119 2.33922L 69.3831 3.03ZM 65.0701 8.445L 65.2435 7.59245L 65.2426 7.59228L 65.0701 8.445ZM 60.3391 12.758L 60.9454 12.1341C 60.6043 11.8026 60.0602 11.8065 59.7239 12.1428L 60.3391 12.758ZM 60.0351 13.062L 59.4199 12.4468C 59.2538 12.6129 59.1619 12.8391 59.1651 13.0739C 59.1684 13.3088 59.2664 13.5323 59.437 13.6938L 60.0351 13.062ZM 65.2981 16.06C 68.4126 16.06 70.7091 14.2729 70.7091 11.656L 68.9691 11.656C 68.9691 12.9911 67.8075 14.32 65.2981 14.32L 65.2981 16.06ZM 70.7091 11.656L 70.7091 11.618L 68.9691 11.618L 68.9691 11.656L 70.7091 11.656ZM 70.7091 11.618C 70.7091 10.4915 70.3335 9.5127 69.3808 8.74933C 68.4963 8.04055 67.1771 7.57079 65.4144 7.21244L 65.0677 8.91756C 66.763 9.26221 67.7428 9.66645 68.2928 10.1072C 68.7746 10.4933 68.9691 10.9395 68.9691 11.618L 70.7091 11.618ZM 65.4145 7.21247C 63.7997 6.88387 62.8909 6.533 62.3906 6.15775C 62.1577 5.98312 62.027 5.81262 61.9478 5.64177C 61.8664 5.46628 61.8171 5.24169 61.8171 4.93L 60.0771 4.93C 60.0771 5.42581 60.156 5.91372 60.3691 6.37355C 60.5844 6.838 60.9144 7.22563 61.3466 7.54975C 62.1762 8.172 63.4144 8.58113 65.0676 8.91753L 65.4145 7.21247ZM 61.8171 4.93L 61.8171 4.892L 60.0771 4.892L 60.0771 4.93L 61.8171 4.93ZM 61.8171 4.892C 61.8171 3.96706 62.7983 2.76 64.8231 2.76L 64.8231 1.02C 62.1739 1.02 60.0771 2.70094 60.0771 4.892L 61.8171 4.892ZM 64.8231 2.76C 66.2436 2.76 67.5447 3.27176 68.5915 4.06531L 69.6426 2.67869C 68.3334 1.68624 66.6705 1.02 64.8231 1.02L 64.8231 2.76ZM 69.8038 3.90613L 70.0698 3.56413L 68.6963 2.49587L 68.4303 2.83787L 69.8038 3.90613ZM 69.9119 2.33922C 68.5512 1.29738 66.809 0.64 64.8611 0.64L 64.8611 2.38C 66.4092 2.38 67.7829 2.90062 68.8542 3.72078L 69.9119 2.33922ZM 64.8611 0.64C 62.061 0.64 59.6591 2.39957 59.6591 4.911L 61.3991 4.911C 61.3991 3.69843 62.6451 2.38 64.8611 2.38L 64.8611 0.64ZM 59.6591 4.911L 59.6591 4.949L 61.3991 4.949L 61.3991 4.911L 59.6591 4.911ZM 59.6591 4.949C 59.6591 6.12121 60.0761 7.09547 61.0359 7.83504C 61.9252 8.5202 63.2257 8.95948 64.8975 9.29772L 65.2426 7.59228C 63.6275 7.26552 62.6574 6.8878 62.0979 6.45671C 61.6091 6.08003 61.3991 5.63879 61.3991 4.949L 59.6591 4.949ZM 64.8967 9.29754C 66.5593 9.63571 67.479 9.99568 67.9796 10.3769C 68.2119 10.5538 68.3419 10.727 68.4209 10.9023C 68.5024 11.0834 68.5511 11.3153 68.5511 11.637L 70.2911 11.637C 70.2911 11.1417 70.2162 10.6516 70.0074 10.1879C 69.796 9.71839 69.4688 9.32392 69.0338 8.99261C 68.1996 8.35732 66.9438 7.93829 65.2435 7.59246L 64.8967 9.29754ZM 68.5511 11.637L 68.5511 11.675L 70.2911 11.675L 70.2911 11.637L 68.5511 11.637ZM 68.5511 11.675C 68.5511 12.2868 68.286 12.8244 67.7729 13.2293C 67.2479 13.6438 66.4293 13.94 65.3361 13.94L 65.3361 15.68C 66.7318 15.68 67.9558 15.3017 68.851 14.5952C 69.7581 13.8791 70.2911 12.8492 70.2911 11.675L 68.5511 11.675ZM 65.3361 13.94C 63.6357 13.94 62.1402 13.2953 60.9454 12.1341L 59.7327 13.3819C 61.2359 14.8427 63.1604 15.68 65.3361 15.68L 65.3361 13.94ZM 59.7239 12.1428L 59.4199 12.4468L 60.6502 13.6772L 60.9542 13.3732L 59.7239 12.1428ZM 59.437 13.6938C 61.0132 15.186 63.0288 16.06 65.2981 16.06L 65.2981 14.32C 63.5013 14.32 61.9069 13.636 60.6332 12.4302L 59.437 13.6938ZM 73.6219 15L 72.837 14.6248C 72.7082 14.8944 72.7266 15.2112 72.886 15.4639C 73.0453 15.7167 73.3232 15.87 73.6219 15.87L 73.6219 15ZM 74.0589 15L 74.0589 15.87C 74.3945 15.87 74.7002 15.677 74.8444 15.374L 74.0589 15ZM 75.9589 11.01L 75.9589 10.14C 75.6234 10.14 75.3177 10.333 75.1735 10.636L 75.9589 11.01ZM 84.4329 11.01L 85.2184 10.636C 85.0742 10.333 84.7685 10.14 84.4329 10.14L 84.4329 11.01ZM 86.3329 15L 85.5475 15.374C 85.6917 15.677 85.9974 15.87 86.3329 15.87L 86.3329 15ZM 86.7889 15L 86.7889 15.87C 87.0877 15.87 87.3656 15.7167 87.5249 15.4639C 87.6843 15.2112 87.7027 14.8944 87.5739 14.6248L 86.7889 15ZM 80.3859 1.605L 81.1709 1.22979C 81.0264 0.927458 80.721 0.735 80.3859 0.735L 80.3859 1.605ZM 80.0249 1.605L 80.0249 0.735C 79.6898 0.735 79.3845 0.927458 79.24 1.22979L 80.0249 1.605ZM 76.1489 10.63L 75.3639 10.2551C 75.2351 10.5246 75.2537 10.8414 75.413 11.0941C 75.5724 11.3467 75.8502 11.5 76.1489 11.5L 76.1489 10.63ZM 80.1959 2.156L 80.981 1.78107C 80.8365 1.47858 80.5312 1.286 80.1959 1.286C 79.8607 1.286 79.5553 1.47858 79.4109 1.78107L 80.1959 2.156ZM 84.2429 10.63L 84.2429 11.5C 84.5417 11.5 84.8195 11.3467 84.9788 11.0941C 85.1382 10.8414 85.1567 10.5246 85.028 10.2551L 84.2429 10.63ZM 73.6219 15.87L 74.0589 15.87L 74.0589 14.13L 73.6219 14.13L 73.6219 15.87ZM 74.8444 15.374L 76.7444 11.384L 75.1735 10.636L 73.2735 14.626L 74.8444 15.374ZM 75.9589 11.88L 84.4329 11.88L 84.4329 10.14L 75.9589 10.14L 75.9589 11.88ZM 83.6475 11.384L 85.5475 15.374L 87.1184 14.626L 85.2184 10.636L 83.6475 11.384ZM 86.3329 15.87L 86.7889 15.87L 86.7889 14.13L 86.3329 14.13L 86.3329 15.87ZM 87.5739 14.6248L 81.1709 1.22979L 79.601 1.98021L 86.004 15.3752L 87.5739 14.6248ZM 80.3859 0.735L 80.0249 0.735L 80.0249 2.475L 80.3859 2.475L 80.3859 0.735ZM 79.24 1.22979L 72.837 14.6248L 74.4069 15.3752L 80.8099 1.98021L 79.24 1.22979ZM 76.934 11.0049L 80.981 2.53093L 79.4109 1.78107L 75.3639 10.2551L 76.934 11.0049ZM 79.4109 2.53093L 83.4579 11.0049L 85.028 10.2551L 80.981 1.78107L 79.4109 2.53093ZM 84.2429 9.76L 76.1489 9.76L 76.1489 11.5L 84.2429 11.5L 84.2429 9.76ZM 91.4414 15L 90.5714 15C 90.5714 15.4805 90.9609 15.87 91.4414 15.87L 91.4414 15ZM 91.8594 15L 91.8594 15.87C 92.3399 15.87 92.7294 15.4805 92.7294 15L 91.8594 15ZM 91.8594 9.775L 91.8594 8.905C 91.3789 8.905 90.9894 9.29451 90.9894 9.775L 91.8594 9.775ZM 91.4414 1.7L 91.4414 0.83C 90.9609 0.83 90.5714 1.21951 90.5714 1.7L 91.4414 1.7ZM 91.8594 9.395L 90.9894 9.395C 90.9894 9.87549 91.3789 10.265 91.8594 10.265L 91.8594 9.395ZM 91.8594 2.08L 91.8594 1.21C 91.3789 1.21 90.9894 1.59951 90.9894 2.08L 91.8594 2.08ZM 91.4414 15.87L 91.8594 15.87L 91.8594 14.13L 91.4414 14.13L 91.4414 15.87ZM 92.7294 15L 92.7294 9.775L 90.9894 9.775L 90.9894 15L 92.7294 15ZM 91.8594 10.645L 96.0394 10.645L 96.0394 8.905L 91.8594 8.905L 91.8594 10.645ZM 96.0394 10.645C 97.7626 10.645 99.2701 10.2542 100.367 9.41008C 101.495 8.54278 102.096 7.26653 102.096 5.728L 100.356 5.728C 100.356 6.77347 99.9698 7.52072 99.3066 8.03092C 98.6131 8.56433 97.5272 8.905 96.0394 8.905L 96.0394 10.645ZM 102.096 5.728L 102.096 5.69L 100.356 5.69L 100.356 5.728L 102.096 5.728ZM 102.096 5.69C 102.096 4.20709 101.53 2.94616 100.427 2.07811C 99.3525 1.2316 97.8603 0.83 96.1154 0.83L 96.1154 2.57C 97.6195 2.57 98.6827 2.9189 99.351 3.44514C 99.9919 3.94984 100.356 4.68391 100.356 5.69L 102.096 5.69ZM 96.1154 0.83L 91.4414 0.83L 91.4414 2.57L 96.1154 2.57L 96.1154 0.83ZM 90.5714 1.7L 90.5714 15L 92.3114 15L 92.3114 1.7L 90.5714 1.7ZM 92.7294 9.395L 92.7294 2.08L 90.9894 2.08L 90.9894 9.395L 92.7294 9.395ZM 91.8594 2.95L 96.0774 2.95L 96.0774 1.21L 91.8594 1.21L 91.8594 2.95ZM 96.0774 2.95C 97.4496 2.95 98.4217 3.2662 99.0302 3.73553C 99.6102 4.1829 99.9384 4.82701 99.9384 5.709L 101.678 5.709C 101.678 4.32999 101.133 3.1596 100.093 2.35772C 99.0816 1.5778 97.6882 1.21 96.0774 1.21L 96.0774 2.95ZM 99.9384 5.709L 99.9384 5.747L 101.678 5.747L 101.678 5.709L 99.9384 5.709ZM 99.9384 5.747C 99.9384 6.67296 99.5945 7.31777 99.0066 7.75826C 98.3847 8.22424 97.4007 8.525 96.0394 8.525L 96.0394 10.265C 97.6231 10.265 99.0236 9.91976 100.05 9.15074C 101.11 8.35623 101.678 7.17704 101.678 5.747L 99.9384 5.747ZM 96.0394 8.525L 91.8594 8.525L 91.8594 10.265L 96.0394 10.265L 96.0394 8.525ZM 106.133 15L 105.263 15C 105.263 15.4805 105.652 15.87 106.133 15.87L 106.133 15ZM 106.551 15L 106.551 15.87C 107.031 15.87 107.421 15.4805 107.421 15L 106.551 15ZM 106.551 9.775L 106.551 8.905C 106.07 8.905 105.681 9.29451 105.681 9.775L 106.551 9.775ZM 106.133 1.7L 106.133 0.83C 105.652 0.83 105.263 1.21951 105.263 1.7L 106.133 1.7ZM 106.551 9.395L 105.681 9.395C 105.681 9.87549 106.07 10.265 106.551 10.265L 106.551 9.395ZM 106.551 2.08L 106.551 1.21C 106.07 1.21 105.681 1.59951 105.681 2.08L 106.551 2.08ZM 106.133 15.87L 106.551 15.87L 106.551 14.13L 106.133 14.13L 106.133 15.87ZM 107.421 15L 107.421 9.775L 105.681 9.775L 105.681 15L 107.421 15ZM 106.551 10.645L 110.731 10.645L 110.731 8.905L 106.551 8.905L 106.551 10.645ZM 110.731 10.645C 112.454 10.645 113.962 10.2542 115.059 9.41008C 116.186 8.54278 116.788 7.26653 116.788 5.728L 115.048 5.728C 115.048 6.77347 114.661 7.52072 113.998 8.03092C 113.305 8.56433 112.219 8.905 110.731 8.905L 110.731 10.645ZM 116.788 5.728L 116.788 5.69L 115.048 5.69L 115.048 5.728L 116.788 5.728ZM 116.788 5.69C 116.788 4.20709 116.221 2.94616 115.119 2.07811C 114.044 1.2316 112.552 0.83 110.807 0.83L 110.807 2.57C 112.311 2.57 113.374 2.9189 114.042 3.44514C 114.683 3.94984 115.048 4.68391 115.048 5.69L 116.788 5.69ZM 110.807 0.83L 106.133 0.83L 106.133 2.57L 110.807 2.57L 110.807 0.83ZM 105.263 1.7L 105.263 15L 107.003 15L 107.003 1.7L 105.263 1.7ZM 107.421 9.395L 107.421 2.08L 105.681 2.08L 105.681 9.395L 107.421 9.395ZM 106.551 2.95L 110.769 2.95L 110.769 1.21L 106.551 1.21L 106.551 2.95ZM 110.769 2.95C 112.141 2.95 113.113 3.2662 113.722 3.73553C 114.302 4.1829 114.63 4.82701 114.63 5.709L 116.37 5.709C 116.37 4.32999 115.824 3.1596 114.784 2.35772C 113.773 1.5778 112.38 1.21 110.769 1.21L 110.769 2.95ZM 114.63 5.709L 114.63 5.747L 116.37 5.747L 116.37 5.709L 114.63 5.709ZM 114.63 5.747C 114.63 6.67296 114.286 7.31777 113.698 7.75826C 113.076 8.22424 112.092 8.525 110.731 8.525L 110.731 10.265C 112.314 10.265 113.715 9.91976 114.741 9.15074C 115.802 8.35623 116.37 7.17704 116.37 5.747L 114.63 5.747ZM 110.731 8.525L 106.551 8.525L 106.551 10.265L 110.731 10.265L 110.731 8.525ZM 125.194 8.065L 125.021 8.91753L 125.021 8.91756L 125.194 8.065ZM 129.07 3.372L 128.545 4.06531C 128.924 4.35303 129.465 4.28208 129.757 3.90613L 129.07 3.372ZM 129.336 3.03L 130.023 3.56413C 130.165 3.38109 130.229 3.14879 130.199 2.9188C 130.169 2.68882 130.049 2.48018 129.865 2.33922L 129.336 3.03ZM 125.023 8.445L 125.197 7.59245L 125.196 7.59228L 125.023 8.445ZM 120.292 12.758L 120.899 12.1341C 120.557 11.8026 120.013 11.8065 119.677 12.1428L 120.292 12.758ZM 119.988 13.062L 119.373 12.4468C 119.207 12.6129 119.115 12.8391 119.118 13.0739C 119.121 13.3088 119.22 13.5323 119.39 13.6938L 119.988 13.062ZM 125.251 16.06C 128.366 16.06 130.662 14.2729 130.662 11.656L 128.922 11.656C 128.922 12.9911 127.761 14.32 125.251 14.32L 125.251 16.06ZM 130.662 11.656L 130.662 11.618L 128.922 11.618L 128.922 11.656L 130.662 11.656ZM 130.662 11.618C 130.662 10.4915 130.287 9.5127 129.334 8.74933C 128.449 8.04055 127.13 7.57079 125.368 7.21244L 125.021 8.91756C 126.716 9.26221 127.696 9.66645 128.246 10.1072C 128.728 10.4933 128.922 10.9395 128.922 11.618L 130.662 11.618ZM 125.368 7.21247C 123.753 6.88387 122.844 6.533 122.344 6.15775C 122.111 5.98312 121.98 5.81262 121.901 5.64177C 121.82 5.46628 121.77 5.24169 121.77 4.93L 120.03 4.93C 120.03 5.42581 120.109 5.91372 120.322 6.37355C 120.538 6.838 120.868 7.22563 121.3 7.54975C 122.129 8.172 123.368 8.58113 125.021 8.91753L 125.368 7.21247ZM 121.77 4.93L 121.77 4.892L 120.03 4.892L 120.03 4.93L 121.77 4.93ZM 121.77 4.892C 121.77 3.96706 122.751 2.76 124.776 2.76L 124.776 1.02C 122.127 1.02 120.03 2.70094 120.03 4.892L 121.77 4.892ZM 124.776 2.76C 126.197 2.76 127.498 3.27176 128.545 4.06531L 129.596 2.67869C 128.287 1.68624 126.624 1.02 124.776 1.02L 124.776 2.76ZM 129.757 3.90613L 130.023 3.56413L 128.649 2.49587L 128.383 2.83787L 129.757 3.90613ZM 129.865 2.33922C 128.504 1.29738 126.762 0.64 124.814 0.64L 124.814 2.38C 126.362 2.38 127.736 2.90062 128.807 3.72078L 129.865 2.33922ZM 124.814 0.64C 122.014 0.64 119.612 2.39957 119.612 4.911L 121.352 4.911C 121.352 3.69843 122.598 2.38 124.814 2.38L 124.814 0.64ZM 119.612 4.911L 119.612 4.949L 121.352 4.949L 121.352 4.911L 119.612 4.911ZM 119.612 4.949C 119.612 6.12121 120.029 7.09547 120.989 7.83504C 121.878 8.5202 123.179 8.95948 124.851 9.29772L 125.196 7.59228C 123.581 7.26552 122.611 6.8878 122.051 6.45671C 121.562 6.08003 121.352 5.63879 121.352 4.949L 119.612 4.949ZM 124.85 9.29754C 126.512 9.63571 127.432 9.99568 127.933 10.3769C 128.165 10.5538 128.295 10.727 128.374 10.9023C 128.456 11.0834 128.504 11.3153 128.504 11.637L 130.244 11.637C 130.244 11.1417 130.169 10.6516 129.961 10.1879C 129.749 9.71839 129.422 9.32392 128.987 8.99261C 128.153 8.35732 126.897 7.93829 125.197 7.59246L 124.85 9.29754ZM 128.504 11.637L 128.504 11.675L 130.244 11.675L 130.244 11.637L 128.504 11.637ZM 128.504 11.675C 128.504 12.2868 128.239 12.8244 127.726 13.2293C 127.201 13.6438 126.382 13.94 125.289 13.94L 125.289 15.68C 126.685 15.68 127.909 15.3017 128.804 14.5952C 129.711 13.8791 130.244 12.8492 130.244 11.675L 128.504 11.675ZM 125.289 13.94C 123.589 13.94 122.093 13.2953 120.899 12.1341L 119.686 13.3819C 121.189 14.8427 123.114 15.68 125.289 15.68L 125.289 13.94ZM 119.677 12.1428L 119.373 12.4468L 120.603 13.6772L 120.907 13.3732L 119.677 12.1428ZM 119.39 13.6938C 120.966 15.186 122.982 16.06 125.251 16.06L 125.251 14.32C 123.454 14.32 121.86 13.636 120.586 12.4302L 119.39 13.6938Z" fill="black"/>
</g>
</g>
</g>
</svg>
