<svg xmlns="http://www.w3.org/2000/svg" xmlns:xlink="http://www.w3.org/1999/xlink" viewBox="0 0 48 48" version="1.1" width="64" height="64" style="fill: rgb(204, 204, 204);">
<g id="surface1">
<path style=" fill:#3F51B5;" d="M 6 40 L 6 8 C 6 6.898438 6.898438 6 8 6 L 20 6 C 21.101563 6 22 6.898438 22 8 L 22 40 C 22 41.101563 21.101563 42 20 42 L 8 42 C 6.898438 42 6 41.101563 6 40 Z "/>
<path style=" fill:#B0BEC5;" d="M 18 34 C 18 36.210938 16.210938 38 14 38 C 11.789063 38 10 36.210938 10 34 C 10 31.789063 11.789063 30 14 30 C 16.210938 30 18 31.789063 18 34 Z "/>
<path style=" fill:#0E1447;" d="M 16.5 34 C 16.5 35.378906 15.378906 36.5 14 36.5 C 12.621094 36.5 11.5 35.378906 11.5 34 C 11.5 32.621094 12.621094 31.5 14 31.5 C 15.378906 31.5 16.5 32.621094 16.5 34 Z "/>
<path style=" fill:#FFFFFF;" d="M 11 11 L 17 11 L 17 26 L 11 26 Z "/>
<path style=" fill:#F44336;" d="M 26 40 L 26 8 C 26 6.898438 26.898438 6 28 6 L 40 6 C 41.101563 6 42 6.898438 42 8 L 42 40 C 42 41.101563 41.101563 42 40 42 L 28 42 C 26.898438 42 26 41.101563 26 40 Z "/>
<path style=" fill:#B0BEC5;" d="M 38 34 C 38 36.210938 36.210938 38 34 38 C 31.789063 38 30 36.210938 30 34 C 30 31.789063 31.789063 30 34 30 C 36.210938 30 38 31.789063 38 34 Z "/>
<path style=" fill:#751212;" d="M 36.5 34 C 36.5 35.378906 35.378906 36.5 34 36.5 C 32.621094 36.5 31.5 35.378906 31.5 34 C 31.5 32.621094 32.621094 31.5 34 31.5 C 35.378906 31.5 36.5 32.621094 36.5 34 Z "/>
<path style=" fill:#FFFFFF;" d="M 31 11 L 37 11 L 37 26 L 31 26 Z "/>
</g>
</svg>