<svg xmlns="http://www.w3.org/2000/svg" xmlns:xlink="http://www.w3.org/1999/xlink" viewBox="0 0 48 48" version="1.1" width="64" height="64" style="fill: rgb(204, 204, 204);">
<g id="surface1">
<path style=" fill:#7E57C2;" d="M 38 5 L 14 4.996094 C 11.792969 4.996094 9.183594 6.066406 9.015625 11 L 9 11 C 9 11 9 30.824219 9 39 L 9.019531 38.945313 C 9.199219 42.585938 11.566406 43 12.605469 43 L 36 43 C 36.1875 43 36.5 43 37 43 C 39 43 39 41 39 41 L 39 6 C 39 5.445313 38.554688 5 38 5 Z "/>
<path style=" fill:#FFE0B2;" d="M 36 36 L 12.605469 36 C 11.273438 36 11 37.117188 11 38.5 C 11 39.882813 11.273438 41.003906 12.605469 41.003906 L 36 41 Z "/>
<path style=" fill:#E0B990;" d="M 12.605469 36 C 11.441406 36 11.085938 36.859375 11.015625 38 L 36 38 L 36 36 Z "/>
<path style=" fill:#FFECB3;" d="M 14 10.996094 L 35 10.996094 L 35 15.996094 L 14 15.996094 Z "/>
<path style=" fill:#311B92;" d="M 38 36 L 36 36 L 36 43 C 36.1875 43 36.5 43 37 43 C 39 43 39 41 39 41 L 39 35.003906 C 39 35.554688 38.554688 36 38 36 Z "/>
</g>
</svg>