<svg xmlns="http://www.w3.org/2000/svg" xmlns:xlink="http://www.w3.org/1999/xlink" viewBox="0 0 48 48" version="1.1" width="64" height="64" style="fill: rgb(204, 204, 204);">
<g id="surface1">
<path style=" fill:#FFC107;" d="M 40 41 L 8 41 C 5.789063 41 4 39.210938 4 37 L 4 11 C 4 8.789063 5.789063 7 8 7 L 40 7 C 42.210938 7 44 8.789063 44 11 L 44 37 C 44 39.210938 42.210938 41 40 41 "/>
<path style=" fill:#FFF8E1;" d="M 32 16 C 32 17.65625 33.34375 19 35 19 C 36.65625 19 38 17.65625 38 16 C 38 14.34375 36.65625 13 35 13 C 33.34375 13 32 14.34375 32 16 "/>
<path style=" fill:#D85700;" d="M 20 16 L 9 32 L 31 32 Z "/>
<path style=" fill:#EF7E03;" d="M 31 22 L 23 32 L 39 32 Z "/>
</g>
</svg>