<svg xmlns="http://www.w3.org/2000/svg" xmlns:xlink="http://www.w3.org/1999/xlink" viewBox="0 0 48 48" version="1.1" width="64" height="64" style="fill: rgb(204, 204, 204);">
<g id="surface1">
<path style="fill:none;stroke-width:2;stroke-linecap:butt;stroke-linejoin:miter;stroke:#607D8B;stroke-opacity:1;stroke-miterlimit:4;" d="M 6 27 C 6 26.660156 6.050781 21.320313 6 21 C 4 8 5 4 21 6 C 21.691406 6 26.367188 6.097656 27 6 C 40 4 44 6 42 21 C 41.953125 21.335938 41.949219 26.679688 42 27 C 44 40 41 44 27 42 L 21 42 C 8 44 4 40 6 27 Z "/>
<path style=" fill:#90CAF9;" d="M 24 7 C 14.609375 7 7 14.609375 7 24 C 7 33.390625 14.609375 41 24 41 C 33.390625 41 41 33.390625 41 24 C 41 14.609375 33.390625 7 24 7 Z M 24 33 C 19.027344 33 15 28.972656 15 24 C 15 19.027344 19.027344 15 24 15 C 28.972656 15 33 19.027344 33 24 C 33 28.972656 28.972656 33 24 33 Z "/>
<path style=" fill:#F44336;" d="M 15.460938 27 L 7.269531 27 C 7.105469 26.023438 7 25.023438 7 24 C 7 22.976563 7.105469 21.976563 7.269531 21 L 15.460938 21 C 15.160156 21.945313 15 22.953125 15 24 C 15 25.046875 15.160156 26.054688 15.460938 27 Z M 33 24 C 33 25.046875 32.839844 26.054688 32.539063 27 L 40.730469 27 C 40.894531 26.023438 41 25.023438 41 24 C 41 22.976563 40.894531 21.976563 40.730469 21 L 32.539063 21 C 32.839844 21.945313 33 22.953125 33 24 Z M 27 40.730469 L 27 32.539063 C 26.054688 32.839844 25.046875 33 24 33 C 22.953125 33 21.945313 32.839844 21 32.539063 L 21 40.730469 C 21.976563 40.894531 22.976563 41 24 41 C 25.023438 41 26.023438 40.894531 27 40.730469 Z M 21 7.269531 L 21 15.460938 C 21.945313 15.160156 22.953125 15 24 15 C 25.046875 15 26.054688 15.160156 27 15.460938 L 27 7.269531 C 26.023438 7.105469 25.023438 7 24 7 C 22.976563 7 21.976563 7.105469 21 7.269531 Z "/>
<path style=" fill:#F44336;" d="M 21 5 L 27 5 L 27 12 L 21 12 Z "/>
<path style=" fill:#F44336;" d="M 37 21 L 43 21 L 43 27 L 37 27 Z "/>
<path style=" fill:#F44336;" d="M 5 21 L 10 21 L 10 27 L 5 27 Z "/>
<path style=" fill:#F44336;" d="M 21 38 L 27 38 L 27 43 L 21 43 Z "/>
</g>
</svg>