<?xml version="1.0" encoding="UTF-8"?>
<svg xmlns="http://www.w3.org/2000/svg" xmlns:xlink="http://www.w3.org/1999/xlink" viewBox="0 0 48 48" version="1.1" width="64px" height="64px">
<g id="surface1">
<path style=" fill:#FFC107;" d="M 9 25.683594 L 9 13 L 7 13 L 7 25.683594 C 5.835938 26.097656 5 27.195313 5 28.5 C 5 30.15625 8 34.5 8 34.5 C 8 34.5 11 30.15625 11 28.5 C 11 27.195313 10.164063 26.097656 9 25.683594 Z "/>
<path style=" fill:#FF9800;" d="M 25 37 C 20 37 20 33 20 33 L 20 27 L 30 27 L 30 33 C 30 33 30 37 25 37 Z "/>
<path style=" fill:#455A64;" d="M 7 13 L 25 2 L 43 13 L 25 23 Z M 30 33 C 30 33 29 37 25 37 C 21 37 20 33 20 33 C 20 33 9 34.984375 9 46 L 41 46 C 41 35.023438 30 33 30 33 "/>
<path style=" fill:#FFA726;" d="M 36 21 C 36 22.105469 35.105469 23 34 23 C 32.894531 23 32 22.105469 32 21 C 32 19.894531 32.894531 19 34 19 C 35.105469 19 36 19.894531 36 21 M 18 21 C 18 19.894531 17.105469 19 16 19 C 14.894531 19 14 19.894531 14 21 C 14 22.105469 14.894531 23 16 23 C 17.105469 23 18 22.105469 18 21 "/>
<path style=" fill:#FFB74D;" d="M 34 15 C 34 9 16 10.027344 16 15 L 16 22 C 16 26.972656 20.027344 31 25 31 C 29.972656 31 34 26.972656 34 22 Z "/>
<path style=" fill:#784719;" d="M 28 21 C 28 20.449219 28.449219 20 29 20 C 29.550781 20 30 20.449219 30 21 C 30 21.550781 29.550781 22 29 22 C 28.449219 22 28 21.550781 28 21 M 20 21 C 20 21.550781 20.449219 22 21 22 C 21.550781 22 22 21.550781 22 21 C 22 20.449219 21.550781 20 21 20 C 20.449219 20 20 20.449219 20 21 "/>
<path style=" fill:#424242;" d="M 15 17 L 15 19.285156 L 17 21 L 17 16 L 15.039063 16 C 15.015625 16.328125 15 16.660156 15 17 Z "/>
<path style=" fill:#424242;" d="M 33 16 L 33 21 L 35 19.257813 L 35 17 C 35 16.664063 34.988281 16.332031 34.972656 16 Z "/>
<path style=" fill:#62808C;" d="M 35 18 C 35 18 30 17 25 17 C 20 17 15 18 15 18 C 15 14 16 12 16 12 C 16 12 18.375 10 25.25 10 C 32.125 10 34 12 34 12 C 34 12 35 14 35 18 Z "/>
</g>
</svg>
