<svg xmlns="http://www.w3.org/2000/svg" xmlns:xlink="http://www.w3.org/1999/xlink" viewBox="0 0 48 48" version="1.1" width="64" height="64" style="fill: rgb(204, 204, 204);">
<g id="surface1">
<path style=" fill:#546E7A;" d="M 14 13 L 8 13 L 8 11.199219 C 8 10.5 8.5 10 9.199219 10 L 12.800781 10 C 13.5 10 14 10.5 14 11.199219 Z "/>
<path style=" fill:#5E35B1;" d="M 40 40 L 8 40 C 5.800781 40 4 38.199219 4 36 L 4 22 L 44 22 L 44 36 C 44 38.199219 42.199219 40 40 40 Z "/>
<path style=" fill:#42257A;" d="M 12.699219 22 C 12.300781 23.300781 12 24.601563 12 26 C 12 32.601563 17.398438 38 24 38 C 30.601563 38 36 32.601563 36 26 C 36 24.601563 35.699219 23.300781 35.300781 22 Z "/>
<path style=" fill:#78909C;" d="M 8 12 L 40 12 C 42.199219 12 44 13.800781 44 16 L 44 22 L 4 22 L 4 16 C 4 13.800781 5.800781 12 8 12 Z "/>
<path style=" fill:#78909C;" d="M 33.898438 13.101563 L 14.199219 13.101563 L 17.601563 8 C 18 7.398438 18.601563 7.101563 19.300781 7.101563 L 28.898438 7.101563 C 29.601563 7.101563 30.199219 7.398438 30.601563 8 Z "/>
<path style=" fill:#455A64;" d="M 35.300781 22 C 33.699219 17.300781 29.199219 14 24 14 C 18.800781 14 14.300781 17.300781 12.699219 22 Z "/>
<path style=" fill:#B388FF;" d="M 33 26 C 33 30.96875 28.96875 35 24 35 C 19.03125 35 15 30.96875 15 26 C 15 21.03125 19.03125 17 24 17 C 28.96875 17 33 21.03125 33 26 Z "/>
<path style=" fill:#C7A7FF;" d="M 29 23 C 27.800781 21.601563 26 20.800781 24.199219 20.800781 C 22.398438 20.800781 20.601563 21.601563 19.398438 23 C 18.898438 23.5 19 24.300781 19.5 24.800781 C 20 25.300781 20.800781 25.199219 21.300781 24.699219 C 22.800781 23 25.601563 23 27.101563 24.699219 C 27.398438 25 27.699219 25.101563 28.101563 25.101563 C 28.398438 25.101563 28.699219 25 29 24.800781 C 29.398438 24.398438 29.5 23.5 29 23 Z "/>
<path style=" fill:#DBE2E5;" d="M 36 15 L 41 15 L 41 19 L 36 19 Z "/>
</g>
</svg>